<?xml version="1.0" encoding="utf-8"?>
<!-- Generator: Adobe Illustrator 25.2.3, SVG Export Plug-In . SVG Version: 6.00 Build 0)  -->
<svg version="1.1" id="Layer_1" xmlns="http://www.w3.org/2000/svg" xmlns:xlink="http://www.w3.org/1999/xlink" x="0px" y="0px"
	 viewBox="0 0 1920 1920" style="enable-background:new 0 0 1920 1920;" xml:space="preserve">
<style type="text/css">
	.st0{fill:#A974FF;}
	.st1{fill:#FFFFFF;}
</style>
<g>
	<path class="st0" d="M960,1838.5c-118.6,0-233.6-23.2-342-69c-104.6-44.2-198.6-107.6-279.2-188.3
		c-80.7-80.7-144-174.6-188.3-279.2c-45.8-108.3-69-223.4-69-342c0-118.6,23.2-233.6,69-342c44.2-104.6,107.6-198.6,188.3-279.2
		s174.6-144,279.2-188.3c108.3-45.8,223.4-69,342-69c118.6,0,233.7,23.2,342.1,69.1c104.5,44.2,198.3,107.5,278.9,188l-362,362
		c-69.2-69.1-161.1-107.1-259-107.1c-202.1,0-366.5,164.4-366.5,366.5s164.4,366.5,366.5,366.5c97.8,0,189.8-38,259-107.1l362,362
		c-80.6,80.6-174.5,143.8-278.9,188C1193.7,1815.3,1078.6,1838.5,960,1838.5z"/>
	<path class="st1" d="M960,82c59.6,0,119.1,6,177,17.8c56.4,11.5,111.9,28.8,164.9,51.2c52,22,102.2,49.3,149.2,81
		c46.2,31.2,89.7,67.1,129.3,106.6L1219,699.9C1149.7,631,1057.8,593,960,593c-202.4,0-367,164.6-367,367s164.6,367,367,367
		c97.8,0,189.7-38,259-106.9l361.3,361.3c-39.5,39.5-83,75.3-129.3,106.6c-46.9,31.7-97.1,59-149.2,81
		c-53,22.4-108.5,39.6-164.9,51.2c-57.9,11.8-117.4,17.8-177,17.8c-59.6,0-119.1-6-176.9-17.8c-56.4-11.5-111.8-28.7-164.8-51.2
		c-52-22-102.2-49.2-149.1-81c-46.5-31.4-90.2-67.5-129.9-107.2c-39.7-39.7-75.8-83.5-107.2-129.9c-31.7-46.9-58.9-97.1-81-149.1
		c-22.4-53-39.6-108.4-51.2-164.8C88,1079.1,82,1019.6,82,960s6-119.1,17.8-176.9c11.5-56.4,28.7-111.8,51.2-164.8
		c22-52,49.2-102.2,81-149.1c31.4-46.5,67.5-90.2,107.2-129.9s83.5-75.8,129.9-107.2c46.9-31.7,97.1-58.9,149.1-81
		c53-22.4,108.4-39.6,164.8-51.2C840.9,88,900.4,82,960,82 M960,81C474.5,81,81,474.5,81,960s393.5,879,879,879
		c242.8,0,462.6-98.4,621.7-257.6L1219,1218.6c-66.2,66.3-157.8,107.4-259,107.4c-202.1,0-366-163.9-366-366s163.9-366,366-366
		c101.1,0,192.7,41,259,107.4l362.7-362.7C1422.6,179.4,1202.8,81,960,81L960,81z"/>
</g>
<circle class="st0" cx="1666" cy="960" r="240"/>
</svg>
